<svg xmlns="http://www.w3.org/2000/svg" version="1.1" xmlns:xlink="http://www.w3.org/1999/xlink" xmlns:svgjs="http://svgjs.dev/svgjs" width="1500" height="1687" viewBox="0 0 1500 1687"><g transform="matrix(1,0,0,1,0.00011015625000254659,0)"><svg viewBox="0 0 320 360" data-background-color="#528265" preserveAspectRatio="xMidYMid meet" height="1687" width="1500" xmlns="http://www.w3.org/2000/svg" xmlns:xlink="http://www.w3.org/1999/xlink"><g id="tight-bounds" transform="matrix(1,0,0,1,0.000023499999997511622,0)"><svg viewBox="0 0 320 360" height="360" width="320"><g><svg></svg></g><g><svg viewBox="0 0 320 360" height="360" width="320"><g><path transform="translate(-74.99272,-51.79039) scale(4.65793,4.65793)" d="M20.6 59.9l0.8 1-0.4-1.3c-0.1-0.6-0.8 0.1-0.4 0.3M21.5 59.3c0.3 0.5 0.6 1 0.6 1.5 0 0.7 0.6 1 1.1 1.2-0.7-0.8-1.1-3-1.7-2.7M59.9 16.9c1.7 0 3.3-0.2 5.1 0.2 4.4 1.1 8.1 3.3 10.6 6.4l7 11.2c0.3 2.8 0.9 5.9 0.8 9.3 0.7 0 0.6-1 1.4-1.2-0.8 2-1.2 4.5-1.4 7.4-0.5-1.6 0-4 0.1-5.3-0.7 1.1-1.1 0.3-1.1-0.2 0.1-0.8-0.3-0.7-0.6-1-1.1-1-1.8-2.1-2.6-3.8 0.5-1.3 0.6-3.2-1-4.2-0.5-0.3-1.1-0.8-1.4-1.6-0.4-1.1-1.1-2.4-0.9-4.1 0.1-0.5-1.5 1.1-2.4 0.4-3.9-2.7-7.8-5.8-12.5-8.4-2.5 0-4.3-0.9-5.2-2-0.8-1-0.2-2.3 1-2.4 0.7 0 1.5-0.2 2.1 0.2 0.1-0.4 0.5-0.9 1-0.9M50 14.6l0.2 0.1c1 0.2 1.5 1.6 2.6 1.1 0 0.7 0.1 1.4-0.1 1.9-0.3 0.8-1.2 0.8-1.9 0.8-6.7-0.4-10.6 2.4-14.7 4.8-1.1 0.7-2.3 1.2-3.2 2.1-4.3 4-9 7.7-10.1 15.1l-0.9 8.2c-0.1 0.9-1.1 1.8-0.9 2.9l0.7 4.9c-0.7-0.7-1.1 0.2-0.9 0.6 0.1 0.3 0.5 1.3 1.1 0.4 0.8 1.5 1.6 4.4 2.7 5.7 3.4 4 7.8 7.6 11.4 11.2 0.9-0.2 1.6-0.2 1.8-0.8 0.3 0.6-0.3 1.2-0.8 1.3 1.6 1 3.4 1.9 5.8 2.1 3.1 0.2 6 0.7 8.7 1.4 1.4-0.4 2.8-0.6 4.3-0.7 0.5 0 0.8-0.8 1.4-1l0.1-1c0.6 0.9 0.5-0.3 0.1-0.9 0.7 0.6 0.9 1.1 1.2 1.5 0-0.3 0.8-1.4 0.8-0.1l0.2-1.3c0.3-0.2 0.4 1.1 0.7 0.2 0.3-0.9 0.9-0.2 1.5-0.5-0.2 0.4-0.1 1.2 0.6 0.7l0.8-0.7c0.5 1.2 1.3 0.7 1.7 0.5 4.4-2.8 8.8-6.1 13-9.4l-0.1 1.3 0.5-1.6c0.5 0.5 0.9 0.1 1.1-0.2 0.6-1 1.4-2 2.7-2.9-1.6 4.3-3.5 7.7-5.9 10.5l-1 1.2c0 0.7-0.2 1.6-1 1.7-0.4 0.1-1.2-0.2-1.8 0.4-0.3 0.4 0.7 1.2-0.1 0.6-0.7-0.5-1.4 0-2.2 0.2-0.6 0.2 0.4 0.8 0.6 1.2 0.2 0.4 0.4 0.8 0.3 1.3l-1.1-1.2c-1.3 0.7-2.1 2-3.2 3-0.5 0.4-0.3 1.1-0.3 1.7-0.7 0-1.5-0.2-1.9 0.2-0.3 0.4-0.2 1-0.2 1.6-1-0.1-1.1-1.6-2-1.3-0.9 0.2-1.9 0.3-2.7 0.8 0.6 1.2-1 0.5-0.8 0.7-1.5-0.9-2.8-1.6-4.4-1-3.4-1.1-7.6-0.6-10.7-0.2 0-0.5 0.1-1-0.1-1.1-0.2 0.5-0.8 0.3-0.7 0.3-1.9-1.3-3.8-2.1-5.8-3.2-1.8 0.2-3.5-0.7-4-1.2-1.4-1.3-3-0.6-4.3-0.9-2.8-0.7-3.8-3.6-4.1-5.6-0.2-1-1-1.4-1.3-1.3-1.3-4.2-3.3-8-4.9-11.9-0.4-1-0.3-2-0.3-3.1 0.5 0.2 1 0.1 0.9-0.6-0.5-3.3-1.7-5.8-3-8.2 0.7-3.4 0.8-7.4 2.4-10.4 1.4-2.7 4-4.1 5.8-6.4 0.6-0.8 0.6-1.9 1.2-2.6 2-2 4-4.1 6.2-5.9 1-0.8 2.2 0 3.7-0.3 0.5-1.8 2.5-3.4 4.4-2.9 0.8 0.2 2.4-1.9 2.9-2.1 0.8-0.3 0.4 0.8 0.4 1.5 1.9-1.5 4.5-2.3 6.9-3.2" fill="#c9efc7" fill-rule="nonzero" stroke="none" stroke-width="1" stroke-linecap="butt" stroke-linejoin="miter" stroke-miterlimit="10" stroke-dasharray="" stroke-dashoffset="0" font-family="none" font-weight="none" font-size="none" text-anchor="none" style="mix-blend-mode: normal" data-fill-palette-color="tertiary"></path></g><g transform="matrix(1,0,0,1,64,91.04446430682094)"><svg viewBox="0 0 192 177.91107138635812" height="177.91107138635812" width="192"><g><svg viewBox="0 0 192 177.91107138635812" height="177.91107138635812" width="192"><g transform="matrix(1,0,0,1,0,98.5510713863581)"><svg viewBox="0 0 192 79.36" height="79.36" width="192"><g id="textblocktransform"><svg viewBox="0 0 192 79.36" height="79.36" width="192" id="textblock"><g><svg viewBox="0 0 192 79.36" height="79.36" width="192"><g transform="matrix(1,0,0,1,0,0)"><svg width="192" viewBox="2.64 -34.13 82.39 34.06" height="79.36" data-palette-color="#c9efc7"><path d="M17.92-13.62L17.92-13.62Q17.6-13.62 15.63-9.33 13.65-5.03 12.72-3.64L12.72-3.64Q11.16-1.29 9.89-1.29L9.89-1.29Q7.54-1.29 6.69-3.71L6.69-3.71Q5.64-6.62 4.14-13.65 2.64-20.68 2.64-22.14L2.64-22.14Q2.64-22.97 3.37-22.97L3.37-22.97Q5-22.97 6.23-20.51L6.23-20.51Q6.3-20.36 8.25-13.72 10.21-7.08 11.08-7.08L11.08-7.08Q11.72-7.08 13.43-12.94L13.43-12.94Q14.01-14.94 14.6-17.31L14.6-17.31 14.99-19.04Q15.48-21.22 15.6-21.53L15.6-21.53Q16.16-23.12 17.93-23.12 19.7-23.12 20.26-22.01 20.83-20.9 22.36-13.98 23.9-7.06 24.71-7.06 25.51-7.06 27.88-14.25 30.25-21.44 30.37-21.66L30.37-21.66Q31.27-23.17 32.74-23.17L32.74-23.17Q33.2-23.17 33.2-22.58L33.2-22.58Q33.2-20.87 32.12-15.2 31.03-9.52 29.35-4.54L29.35-4.54Q28.81-2.98 28.04-2.25 27.27-1.51 25.83-1.51L25.83-1.51Q23.36-1.51 19.24-10.74L19.24-10.74Q17.97-13.62 17.92-13.62ZM45.26-31.74L45.26-31.27Q45.26-28.74 42.38-28.74L42.38-28.74 42.19-28.74 42.09-28.76 41.35-28.83Q41.26-28.86 41.18-28.86L41.18-28.86Q39.6-28.86 39.6-31.03L39.6-31.03 39.6-31.49Q39.6-32.84 40.21-33.45 40.82-34.06 41.72-34.06L41.72-34.06 42.28-34.13 42.84-34.13 43.67-34.01Q45.19-34.01 45.19-32.3L45.19-32.3 45.26-31.74ZM44.46-11.25L44.46-11.25 45.48-3.76 45.48-3.22 45.46-2.98Q45.46-1.39 44.8-0.73 44.14-0.07 42.23-0.07L42.23-0.07 41.94-0.07Q40.23-0.07 39.77-1.93L39.77-1.93Q39.52-2.88 39.52-9.28L39.52-9.28 39.52-19.73 39.4-21.36 39.4-21.9Q39.4-23.1 39.84-23.56 40.28-24.02 41.23-24.02L41.23-24.02 42.06-24.02Q43.8-24.02 44.19-22.78L44.19-22.78Q44.36-22.24 44.36-18.77L44.36-18.77 44.36-13.5 44.43-12.04Q44.46-11.74 44.46-11.25ZM60.42-23.07Q62.32-23.8 63.97-23.8 65.62-23.8 66.73-23.28 67.84-22.75 69-22.05 70.16-21.34 70.58-21.34 70.99-21.34 73.24-22.39 75.48-23.44 77.56-23.44 79.63-23.44 81.27-22.29 82.91-21.14 83.66-19.04L83.66-19.04Q85.03-15.28 85.03-3.69L85.03-3.69Q85.03-1.29 83.55-1.29 82.08-1.29 81.49-3.36 80.9-5.42 80.33-10.55 79.76-15.67 79.17-16.89L79.17-16.89Q77.97-19.31 75.57-19.31 73.16-19.31 72.26-16.7L72.26-16.7Q71.67-14.94 71.19-8.8 70.7-2.66 70.62-2.42L70.62-2.42Q70.16-0.83 68.42-0.83 66.67-0.83 66.25-1.7 65.84-2.56 65.84-9.48 65.84-16.41 65.06-18.08 64.28-19.75 62.01-19.75L62.01-19.75Q60.91-19.75 59.55-18.82 58.2-17.9 57.55-16.33 56.9-14.77 56.56-9.8 56.22-4.83 55.76-3.23 55.29-1.64 53.93-1.64L53.93-1.64Q52.97-1.64 52.55-2.51 52.12-3.39 52.12-5.69L52.12-5.69 52.14-6.59Q52.14-7.52 52.14-8.45L52.14-8.45Q52.14-17.02 52.85-20.43L52.85-20.43Q53.27-22.41 55-22.41L55-22.41 57.69-22.02 60.42-23.07Z" opacity="1" transform="matrix(1,0,0,1,0,0)" fill="#c9efc7" class="wordmark-text-0" data-fill-palette-color="primary" id="text-0"></path></svg></g></svg></g></svg></g></svg></g><g transform="matrix(1,0,0,1,36.672000000000004,0)"><svg viewBox="0 0 118.65599999999999 79.8160800263581" height="79.8160800263581" width="118.65599999999999"><g><svg xmlns="http://www.w3.org/2000/svg" xmlns:xlink="http://www.w3.org/1999/xlink" version="1.1" x="0" y="0" viewBox="9.409 22.29599979344101 81.42800005165846 54.77400020655898" enable-background="new 0 0 100 100" xml:space="preserve" height="79.8160800263581" width="118.65599999999999" class="icon-icon-0" data-fill-palette-color="accent" id="icon-0"><g fill="#31c48d" data-fill-palette-color="accent"><path d="M81.138 41.692C86.495 41.692 90.837 37.348 90.837 31.994A9.697 9.697 0 0 0 81.138 22.296C75.787 22.296 71.441 26.636 71.441 31.994 71.44 37.348 75.787 41.692 81.138 41.692M81.367 25.474C82.008 25.474 82.526 25.993 82.526 26.633L82.021 34.05A0.655 0.655 0 0 1 80.713 34.05L80.208 26.633C80.208 25.993 80.727 25.474 81.367 25.474M81.367 36.304A1.158 1.158 0 1 1 81.368 38.621 1.158 1.158 0 0 1 81.367 36.304" fill="#31c48d" data-fill-palette-color="accent"></path><path d="M81.138 44.203C74.398 44.203 68.933 38.737 68.933 31.995 68.933 31.163 69.018 30.352 69.173 29.567 63.25 27.269 56.31 25.943 48.9 25.943 27.09 25.943 9.409 37.389 9.409 51.508 9.409 57.119 12.205 62.305 16.943 66.521 14.264 72.582 9.409 76.648 9.409 76.648 19.373 76.523 25.216 74.922 28.535 73.415 34.48 75.734 41.449 77.07 48.9 77.07 70.71 77.07 88.388 65.625 88.388 51.508 88.388 48.563 87.616 45.736 86.205 43.106A12.2 12.2 0 0 1 81.138 44.203M33.932 54.852A2.7 2.7 0 1 1 33.93 49.45 2.7 2.7 0 0 1 33.932 54.852M48.899 54.852A2.7 2.7 0 1 1 48.897 49.45 2.7 2.7 0 0 1 48.899 54.852M63.867 54.852A2.702 2.702 0 1 1 63.867 49.449 2.702 2.702 0 0 1 63.866 54.852" fill="#31c48d" data-fill-palette-color="accent"></path></g></svg></g></svg></g><g></g></svg></g></svg></g></svg></g><defs></defs></svg><rect width="320" height="360" fill="none" stroke="none" visibility="hidden"></rect></g></svg></g></svg>